<?xml version="1.0" encoding="UTF-8" standalone="no"?>
<!-- Created with Inkscape (http://www.inkscape.org/) -->

<svg
   version="1.1"
   id="svg2"
   width="367.29587"
   height="374.15454"
   viewBox="0 0 367.29586 374.15454"
   sodipodi:docname="retro-traffi-circle-car-motorcycle-v1.svg"
   inkscape:version="1.2.2 (b0a8486541, 2022-12-01)"
   xmlns:inkscape="http://www.inkscape.org/namespaces/inkscape"
   xmlns:sodipodi="http://sodipodi.sourceforge.net/DTD/sodipodi-0.dtd"
   xmlns="http://www.w3.org/2000/svg"
   xmlns:svg="http://www.w3.org/2000/svg">
  <sodipodi:namedview
     id="namedview5551"
     pagecolor="#ffffff"
     bordercolor="#000000"
     borderopacity="0.25"
     inkscape:showpageshadow="2"
     inkscape:pageopacity="0.0"
     inkscape:pagecheckerboard="0"
     inkscape:deskcolor="#d1d1d1"
     showgrid="false"
     inkscape:zoom="2.1060815"
     inkscape:cx="183.99098"
     inkscape:cy="187.07728"
     inkscape:window-width="1452"
     inkscape:window-height="991"
     inkscape:window-x="26"
     inkscape:window-y="23"
     inkscape:window-maximized="0"
     inkscape:current-layer="g2302" />
  <defs
     id="defs6" />
  <g
     id="g8"
     style="stroke:#0000e4;stroke-opacity:1"
     transform="translate(12.206536,9.6983785)">
    <g
       id="g2302"
       transform="matrix(0.98087647,0,0,0.99301621,3.4627619,-0.09362556)"
       style="stroke:#0000e4;stroke-opacity:1">
      <path
         id="path2180"
         style="vector-effect:non-scaling-stroke;fill:none;stroke:#0000e4;stroke-width:1.01325;stroke-dasharray:none;stroke-opacity:1;-inkscape-stroke:hairline;fill-opacity:1"
         d="M 175.72927,3.4072249 C 108.44004,2.02234 49.267322,39.47809 19.197653,95.426229 6.3759296,119.28255 -1.154353,146.50111 -1.7661704,175.50436 -3.8130871,272.52718 72.336975,352.78115 168.31915,354.75597 264.30132,356.73139 343.76904,279.67973 345.81464,182.65688 347.86048,85.634798 271.71069,5.3820288 175.72927,3.4072249 Z m -0.0347,32.3772661 c 70.6416,1.459564 131.06697,64.168876 136.27521,134.392889 L 31.805169,173.88362 C 35.540241,100.20167 101.68259,34.384682 175.69455,35.784491 Z M 313.03175,195.01063 C 305.28719,265.21674 243.45359,321.7242 172.59907,320.43605 105.07254,318.99604 41.651629,265.57094 32.710531,198.85336 Z"
         sodipodi:nodetypes="csccccccccccccc" />
      <path
         id="path1210"
         style="vector-effect:non-scaling-stroke;fill:none;fill-opacity:1;stroke:#0000fe;stroke-width:1.01325;stroke-dasharray:none;stroke-opacity:1;-inkscape-stroke:hairline"
         d="m 185.75067,50.657595 -17.02461,0.21739 -9.62113,0.24322 -7.84147,0.793208 -6.6228,0.79373 -5.24793,1.055724 -4.06653,0.845339 -4.03523,1.223368 -3.46715,1.344115 -2.8257,1.15887 -1.87463,1.555555 -1.03356,1.827026 -0.52207,2.348378 -0.68516,2.663151 -2.97685,19.204321 -0.46204,2.325477 -1.13431,1.924196 -2.03086,1.962857 -2.51659,2.446947 -2.28203,2.315941 -1.3596,2.610002 -1.23148,3.54977 -1.41772,6.45283 1.31124,36.70976 7.46331,0.0206 0.45024,11.58303 c 0.57745,1.57098 0.75597,2.73782 1.51165,4.12483 l 1.56365,1.45424 3.77467,1.07103 3.40055,-0.60727 2.73297,-2.05888 1.69498,-2.68082 0.28516,-2.85077 -0.34867,-10.58852 90.41951,-1.53626 0.80636,14.0971 0.67704,1.82348 1.52768,1.29842 2.72862,1.45218 3.97575,-0.0852 2.77309,-1.4211 1.82429,-1.84136 0.74326,-2.19432 0.41821,-13.75622 7.825,0.41235 0.21496,-28.16097 -0.79119,-11.88012 -0.80395,-3.85688 -1.20752,-3.084643 -1.60791,-2.743148 -1.7084,-2.002767 -1.89711,-1.709929 -2.79684,-2.2378 -1.06117,-1.674557 -0.86216,-1.996778 -2.13744,-13.85897 -1.03746,-6.796347 -1.34606,-4.315644 -1.35316,-2.234641 -1.79312,-1.580855 -2.20641,-1.326057 -3.32193,-1.128667 -4.00795,-1.04623 -4.00206,-0.707835 -4.33073,-0.369432 -7.20837,-0.355963 z m 12.57507,7.313223 c 5.46501,0.09631 10.91952,0.454563 16.23278,1.712786 5.14479,0.989563 5.59978,6.478532 6.02455,10.710139 0.5719,4.455979 1.88214,8.818567 2.11817,13.307984 -0.86067,2.777392 -3.8052,2.23897 -6.67197,1.737313 -1.47788,-0.258616 -2.93555,-0.508812 -4.07679,-0.287774 -7.55523,-0.684034 -15.12889,-1.059779 -22.71498,-0.852499 -12.33706,-0.379961 -24.2863,-0.563661 -36.60393,0.251403 -7.58176,0.358945 -8.91093,0.50959 -22.64674,2.252228 -2.72073,1.362182 -6.41075,0.671579 -5.13148,-2.835603 0.94968,-6.080029 1.31502,-12.274468 2.67893,-18.275456 1.9643,-3.720718 6.79861,-4.15815 10.45201,-5.257195 16.67271,-2.857822 33.67399,-2.15268 50.51846,-2.489962 3.25819,0.0054 6.54199,-0.03115 9.82099,0.02664 z m 30.02579,36.92841 a 8.8645675,8.7035954 0.22361711 0 1 8.75964,8.806682 8.8645675,8.7035954 0.22361711 0 1 -8.96879,8.59882 8.8645675,8.7035954 0.22361711 0 1 -8.75765,-8.80666 8.8645675,8.7035954 0.22361711 0 1 8.9668,-8.598842 z m -107.67776,1.973197 a 8.8645675,8.7035954 0.22361711 0 1 8.75964,8.806675 8.8645675,8.7035954 0.22361711 0 1 -8.9688,8.59881 8.8645675,8.7035954 0.22361711 0 1 -8.75963,-8.80668 8.8645675,8.7035954 0.22361711 0 1 8.96879,-8.598805 z" />
      <g
         id="g2659"
         style="vector-effect:non-scaling-stroke;stroke:#0000ff;stroke-width:0.924592;stroke-dasharray:none;stroke-opacity:1;-inkscape-stroke:hairline;fill:none;fill-opacity:1"
         transform="matrix(1.1303522,0,0,1.0624664,58.17736,97.384243)">
        <path
           id="path2495-0"
           style="vector-effect:non-scaling-stroke;fill:none;fill-opacity:1;stroke:#0000ff;stroke-width:0.924592;stroke-dasharray:none;stroke-opacity:1;-inkscape-stroke:hairline"
           d="m 40.90112,165.37387 c 3.0098,-0.006 6.01961,-0.0121 9.02941,-0.0181 0.2648,0.72402 0.62578,1.42132 1.18329,1.95607 0.88931,0.51554 1.84251,1.05802 2.90463,0.98551 0.6114,-0.11503 1.2714,-0.1988 1.83909,-0.45998 0.56518,-0.28779 1.08505,-0.63149 1.46129,-1.15243 0.38776,-0.3949 0.60993,-0.95076 0.76558,-1.46709 0.11287,-0.90939 0.0461,-1.83904 -0.25097,-2.70876 2.32711,-2.23104 4.65422,-4.46209 6.98133,-6.69313 0.52171,1.06005 1.28796,1.97852 1.70271,3.09188 0.43112,1.22307 0.66126,2.51929 0.87949,3.79268 0.0436,1.46962 -0.0516,2.94461 -0.29188,4.39301 -0.25112,0.89768 -0.31477,1.86779 -0.86797,2.64876 -0.54364,1.05729 -1.22697,2.04418 -1.94443,2.98478 -1.47185,1.41486 -3.09145,2.74207 -4.9843,3.54603 -1.71695,0.66878 -3.55175,1.05023 -5.39245,1.11973 -1.23089,-0.18178 -2.49224,-0.25502 -3.6974,-0.55241 -1.03791,-0.40031 -2.0956,-0.76021 -3.0134,-1.40576 -1.14117,-0.70168 -2.18904,-1.55548 -3.16698,-2.47039 -0.65419,-1.11718 -1.38597,-2.19266 -2.05899,-3.29347 -0.37906,-1.20841 -0.84116,-2.39659 -0.97114,-3.66564 -0.0356,-0.21043 -0.0713,-0.42086 -0.10691,-0.63129 z M 118.1543,99.93945 c -1.11379,0.0508 -2.19532,0.32801 -3.13086,1.00196 -1.38893,0.50833 -2.16104,1.91188 -2.67578,3.21289 -0.91201,2.02214 -0.67203,4.22297 -0.73243,6.3789 0.37645,1.38715 -0.81764,2.07331 -1.69531,2.90039 -1.21882,0.76316 -2.83686,0.80164 -4.20703,1.28907 -3.11889,1.13308 -6.19513,2.39881 -9.44531,3.13476 -2.63069,1.11431 -5.0853,2.68373 -7.58789,4.08203 -2.53776,1.14397 -4.27992,3.33675 -6.28321,5.18555 -1.98387,2.48054 -4.12649,4.90887 -5.41406,7.84961 -1.98332,3.51856 -3.53168,7.23571 -4.98437,10.99805 l -0.0645,0.82812 -3.5332,1.36328 a 21.597309,21.492697 0 0 0 -6.74023,-4.26172 v -2.68945 h 5.40429 v -2.11523 h -27.625 v 2.11523 h 4.57813 v 3.45703 a 21.597309,21.492697 0 0 0 -10.92188,12.69141 h -2.90429 v 11.3789 h 2.48242 a 21.597309,21.492697 0 0 0 20.97851,16.61133 21.597309,21.492697 0 0 0 20.16602,-13.95117 l 19.78125,4.60547 c -0.017,0.0814 -0.0338,0.16278 -0.0508,0.24414 8.26949,-0.93728 16.5391,-1.87522 24.80859,-2.8125 -1.22723,-2.37356 -2.45441,-4.74754 -3.68164,-7.12109 l 23.67578,-23.11133 4.85938,-0.0957 0.81054,1.96679 a 21.597309,21.492697 0 0 0 -11.53906,18.96094 21.597309,21.492697 0 0 0 21.59766,21.49219 21.597309,21.492697 0 0 0 21.59765,-21.49219 21.597309,21.492697 0 0 0 -21.59765,-21.49219 21.597309,21.492697 0 0 0 -6.08985,0.8711 l -4.34765,-11.21875 5.07617,2.01171 -0.43945,-8.62695 -6.07227,2.86133 -0.0254,0.45312 h -17.36328 c -0.13123,-0.65272 -0.54793,-1.2526 -1.07031,-1.7207 -0.87493,-0.99181 -1.91167,-1.177 -3.09961,-0.61523 -1.94804,1.21961 -3.94594,2.42753 -6.00977,3.48242 -1.0842,0.99797 -2.03376,0.53476 -2.42187,-0.81836 0.97785,-2.9762 1.95574,-5.95154 2.93359,-8.92773 0.65192,-1.46101 0.71398,-3.28139 1.7793,-4.49024 0.73776,-1.25496 2.34599,-0.52714 3.29492,0.0859 1.07834,0.97299 2.28466,-0.33843 3.43164,-0.57813 0.77755,-1.50039 0.77332,-3.29359 1.2207,-4.91797 0.0637,-1.38011 0.43642,-2.34559 1.97461,-1.74414 1.57025,0.37687 -0.30507,-1.56594 -0.26367,-2.42187 -0.26707,-1.40943 -1.09899,-2.50328 -1.95312,-3.60352 -0.40111,-1.47864 -1.97142,-1.69309 -3.14844,-2.33398 -1.07058,-0.22948 -2.21823,-0.40428 -3.33203,-0.35352 z m 6.0039,31.66016 h 14.30664 l 2.86719,6.95312 -30.00195,0.28321 c -0.32654,-0.81777 -0.6507,-1.63604 -0.94336,-2.45703 2.39584,-1.24975 4.79165,-2.50026 7.1875,-3.75 1.37492,-1.11102 3.13663,-0.57589 4.75586,-0.64649 0.86871,0.23843 1.45453,0.0765 1.82812,-0.38281 z m 7.52539,11.73633 -22.1914,21.11718 c 1.22806,-6.85239 2.45552,-13.70423 3.68359,-20.55664 -0.0187,-0.0654 -0.0451,-0.12992 -0.0645,-0.19531 z m 21.94336,6.83789 1.94141,0.0469 1.77734,0.41016 1.91016,0.44726 1.81055,0.86915 1.42773,0.79296 1.43359,1.22071 1.19532,1.27734 1.33789,1.6875 1.15234,2.10547 0.60742,2.33008 0.39844,3.17383 -0.32617,2.95117 -0.74609,2.0332 -0.97852,2.05664 -1.00586,1.40235 -1.34766,1.66796 -1.51953,1.27149 -1.82422,1.14062 -2.18554,0.76172 -1.65039,0.3711 -1.91602,0.20898 -1.9668,0.0469 -2.36718,-0.47852 -1.86524,-0.68945 -1.4375,-0.71875 -1.70117,-1.09766 -1.7832,-1.45898 -1.34571,-1.88477 -0.83593,-1.30664 -0.85547,-1.95312 -0.47656,-2.21876 -0.32032,-1.7832 0.18164,-1.96289 0.35938,-2.06641 0.63672,-2.00976 0.94726,-1.96484 1.49805,-1.73829 1.46484,-1.59179 1.57422,-1.27539 4.25977,8.66601 -0.46094,0.52539 -0.42578,0.48243 -0.41602,1.13476 -0.21679,1.83203 0.41992,1.47852 0.81836,1.16211 1.07031,0.96093 1.20117,0.45704 1.55469,0.18554 1.36719,-0.24023 1.05273,-0.49414 0.90039,-0.7461 0.75391,-0.91796 0.44336,-1.07422 0.14453,-1.26172 -0.20508,-1.44141 -0.37891,-0.92773 -0.65039,-0.87305 -0.75976,-0.67187 -0.58789,-0.47461 -0.50782,-0.16797 -1.1289,-0.23633 -3.73242,-9.0625 z m -67.92968,1.27344 12.78125,1.25 c -0.97073,4.63858 -1.94138,9.27743 -2.91211,13.91601 z" />
        <path
           style="vector-effect:non-scaling-stroke;fill:none;fill-opacity:1;stroke:#0000ff;stroke-width:0.924592;stroke-dasharray:none;stroke-opacity:1;-inkscape-stroke:hairline"
           d="m 40.760526,160.1866 c 3.29358,0.008 6.58716,0.0163 9.88074,0.0245 0.40281,-0.37602 0.81347,-0.74044 1.33491,-0.94136 0.37364,-0.21604 0.83716,-0.14168 1.25332,-0.19003 0.36744,-0.0138 0.77689,0.0756 1.1186,-0.001 2.34615,-2.44013 4.69231,-4.88025 7.03846,-7.32038 -0.71786,-0.45657 -1.39157,-0.99529 -2.20649,-1.27124 -0.77234,-0.3383 -1.57605,-0.62218 -2.39668,-0.81274 -0.95034,-0.17762 -1.90962,-0.36936 -2.87377,-0.41848 -1.33342,0.0549 -2.6794,0.17047 -3.97107,0.50859 -1.17769,0.4994 -2.33758,1.04737 -3.44549,1.68487 -0.69455,0.51054 -1.39426,1.01509 -1.97592,1.65692 -0.63301,0.60224 -1.19985,1.27675 -1.73209,1.96618 -0.40774,0.66446 -0.84297,1.31507 -1.08738,2.06189 -0.42398,0.98195 -0.74869,1.99921 -0.93714,3.05273 z"
           id="path2439-2" />
      </g>
      <ellipse
         style="vector-effect:non-scaling-stroke;fill:none;stroke:#ff0000;stroke-width:1.01325;stroke-dasharray:none;stroke-opacity:1;-inkscape-stroke:hairline"
         id="path4030"
         cx="171.25362"
         cy="178.72067"
         rx="187.22841"
         ry="188.39297" />
    </g>
  </g>
</svg>
